<?xml version="1.0" standalone="no"?>
<!DOCTYPE svg PUBLIC "-//W3C//DTD SVG 20010904//EN"
 "http://www.w3.org/TR/2001/REC-SVG-20010904/DTD/svg10.dtd">
<svg version="1.0" xmlns="http://www.w3.org/2000/svg"
 width="512.000000pt" height="512.000000pt" viewBox="0 0 512.000000 512.000000"
 preserveAspectRatio="xMidYMid meet">
<metadata>
Created by potrace 1.14, written by Peter Selinger 2001-2017
</metadata>
<g transform="translate(0.000000,512.000000) scale(0.100000,-0.100000)"
fill="#000000" stroke="none">
<path d="M815 5104 c-106 -26 -220 -89 -299 -168 -80 -81 -127 -154 -165 -259
l-26 -72 -2 -2020 c-1 -1674 1 -2031 12 -2083 31 -140 126 -288 240 -372 73
-54 122 -77 250 -118 11 -4 711 -8 1555 -9 1524 -3 1536 -3 1615 18 215 56
380 211 457 430 l23 64 2 2020 c2 2216 5 2077 -60 2216 -42 89 -53 105 -140
190 -78 77 -195 141 -298 164 -97 21 -3076 20 -3164 -1z m1765 -1289 c100 -30
190 -85 270 -165 122 -122 180 -255 186 -425 6 -188 -54 -342 -185 -475 -122
-122 -255 -179 -431 -186 -183 -7 -338 54 -468 184 -96 96 -142 178 -179 322
-2 8 -6 58 -8 110 -8 185 52 337 185 470 96 96 199 152 333 180 60 13 232 4
297 -15z m282 -1589 c369 -73 629 -363 654 -732 6 -99 -7 -139 -62 -180 l-37
-29 -1016 0 c-978 0 -1017 1 -1044 19 -56 38 -72 73 -72 161 1 124 22 211 79
329 88 181 209 291 437 397 8 3 49 14 90 24 40 9 79 18 84 20 6 2 191 3 412 4
311 1 419 -2 475 -13z"/>
<path d="M4893 4465 c-17 -8 -44 -31 -60 -51 l-28 -37 0 -376 c0 -373 0 -376
22 -407 31 -43 66 -64 117 -70 57 -7 106 14 142 62 l29 37 3 363 c3 403 2 410
-61 458 -43 33 -117 42 -164 21z"/>
<path d="M4893 3185 c-17 -8 -44 -31 -60 -51 l-28 -37 0 -376 c0 -373 0 -376
22 -407 31 -43 66 -64 117 -70 57 -7 106 14 142 62 l29 37 3 363 c3 403 2 410
-61 458 -43 33 -117 42 -164 21z"/>
<path d="M4893 1905 c-17 -8 -44 -31 -60 -51 l-28 -37 0 -376 c0 -373 0 -376
22 -407 31 -43 66 -64 117 -70 57 -7 106 14 142 62 l29 37 3 363 c3 403 2 410
-61 458 -43 33 -117 42 -164 21z"/>
</g>
</svg>
